<svg xmlns="http://www.w3.org/2000/svg" viewBox="0 0 64 64" role="img" aria-label="Figure My Money favicon">
  <rect width="64" height="64" rx="10" fill="#0a0a0a"/>
  <path d="M18 14h30v8H27v9h18v8H27v15h-9V14z" fill="#f5f0e8"/>
  <path d="M49.2 30.8c-1.2-1.1-3-1.8-5.5-2.3l-2.4-.5c-1.4-.3-2.3-.6-2.8-1-.4-.3-.6-.8-.6-1.4 0-.8.3-1.4 1-1.8.7-.5 1.6-.7 2.8-.7 1.5 0 2.7.4 3.5 1.2.8.8 1.3 1.9 1.4 3.3h5.2c-.2-2.8-1.2-5.1-3.1-6.8-1.5-1.3-3.5-2.1-5.9-2.4V16h-3.1v2.3c-2.3.3-4.1 1.2-5.5 2.6-1.5 1.5-2.2 3.4-2.2 5.8 0 2.5.8 4.4 2.3 5.7 1.2 1.1 3.1 1.9 5.7 2.4l2.4.5c1.3.3 2.2.6 2.7 1 .4.4.7.9.7 1.6 0 1-.4 1.7-1.2 2.2-.8.5-1.9.8-3.3.8-1.9 0-3.3-.5-4.2-1.5-.8-.9-1.2-2-1.2-3.4h-5.2c0 2.9.9 5.2 2.6 7 1.6 1.6 3.8 2.6 6.6 2.9V52h3.1v-2.5c2.5-.3 4.5-1.2 6.1-2.8 1.6-1.6 2.4-3.7 2.4-6.3 0-2.5-.8-4.4-2.4-5.6z" fill="#c9a84c"/>
</svg>
