<svg xmlns="http://www.w3.org/2000/svg" width="1600" height="500" viewBox="0 0 1600 500" role="img" aria-label="Figure My Money logo">
  <defs>
    <linearGradient id="goldGrad" x1="0" y1="0" x2="1" y2="1">
      <stop offset="0%" stop-color="#e8c96a"/>
      <stop offset="100%" stop-color="#c9a84c"/>
    </linearGradient>
  </defs>

  <rect width="1600" height="500" fill="#f5f0e8"/>

  <!-- Mark -->
  <g transform="translate(70,70)">
    <rect width="360" height="360" rx="36" fill="#0a0a0a"/>

    <!-- F monogram -->
    <path d="M95 75h175v42H143v62h104v42H143v139H95V75z" fill="#f5f0e8"/>

    <!-- Stylized money S -->
    <path d="M287 190c-8-8-22-14-41-18l-18-4c-10-2-16-5-19-8-3-2-4-5-4-9 0-6 2-10 7-13 5-3 12-5 20-5 11 0 20 3 27 9 6 6 10 14 11 24h39c-1-21-9-38-23-51-12-11-26-17-44-19V80h-23v17c-17 3-31 9-42 20-11 11-17 26-17 44 0 18 6 33 18 43 9 8 23 14 43 18l18 4c10 2 16 5 19 8 3 3 5 7 5 12 0 7-3 12-9 16-6 4-14 6-25 6-14 0-25-4-32-12-6-6-9-15-9-25h-39c0 22 7 39 20 52 12 12 29 19 50 22v19h23v-19c19-2 34-9 46-21 12-12 18-28 18-47 0-19-6-33-18-43z" fill="url(#goldGrad)"/>
  </g>

  <!-- Wordmark -->
  <g transform="translate(480,125)">
    <text x="0" y="110" fill="#0a0a0a" font-size="88" font-family="Georgia, 'Times New Roman', serif" font-weight="700" letter-spacing="1.2">FIGURE MY MONEY</text>
    <text x="2" y="172" fill="#6b6560" font-size="34" font-family="'Helvetica Neue', Arial, sans-serif" letter-spacing="5">DATA-DRIVEN FINANCIAL DECISIONS</text>
    <rect x="0" y="210" width="960" height="5" fill="#c9a84c"/>
  </g>
</svg>
